<svg width="49.99999999999999" height="49.99999999999999" xmlns="http://www.w3.org/2000/svg">
 <!-- Created with Method Draw - http://github.com/duopixel/Method-Draw/ -->

 <g id="Layer_1">
  <title>Layer 1</title>
  <path stroke-width="0" id="svg_7" d="m8.00067,14.72329l0,0c0,-4.96001 4.09116,-8.98089 9.13787,-8.98089l0,0c2.42351,0 4.74777,0.9462 6.46145,2.63044c1.71368,1.68424 2.67642,3.96857 2.67642,6.35045l0,0c0,4.96001 -4.09116,8.98089 -9.13787,8.98089l0,0c-5.04671,0 -9.13787,-4.02088 -9.13787,-8.98089zm4.56894,0l0,0c0,2.48 2.04558,4.49045 4.56894,4.49045c2.52335,0 4.56894,-2.01044 4.56894,-4.49045c0,-2.48 -2.04558,-4.49045 -4.56894,-4.49045l0,0c-2.52335,0 -4.56894,2.01044 -4.56894,4.49045z" stroke-dasharray="null" fill="#ffffff"/>
  <line stroke-width="4" stroke="#ffffff" transform="rotate(4.24445, 26.1074, 23.5234)" stroke-linecap="null" stroke-linejoin="null" id="svg_9" y2="27.58395" x2="30.62933" y1="19.46295" x1="21.58548" opacity="undefined" stroke-dasharray="null" fill="none"/>
 </g>
</svg>