<svg width="19.707" height="19.706" xmlns="http://www.w3.org/2000/svg">

 <g>
  <title>Layer 1</title>
  <path id="svg_1" fill="#ffffff" d="m21.707,20.293l-5.393,-5.393c1.089,-1.396 1.686,-3.101 1.686,-4.9c0,-2.137 -0.833,-4.146 -2.344,-5.656c-1.51,-1.512 -3.519,-2.344 -5.656,-2.344c-2.137,0 -4.146,0.832 -5.656,2.344c-1.511,1.51 -2.344,3.519 -2.344,5.656c0,2.137 0.833,4.146 2.344,5.656c1.51,1.512 3.519,2.344 5.656,2.344c1.799,0 3.504,-0.596 4.9,-1.686l5.393,5.392l1.414,-1.413zm-11.707,-4.293c-1.603,0 -3.109,-0.624 -4.242,-1.757c-1.134,-1.133 -1.758,-2.64 -1.758,-4.243c0,-1.602 0.624,-3.109 1.758,-4.242c1.133,-1.134 2.639,-1.758 4.242,-1.758c1.603,0 3.109,0.624 4.242,1.758c1.134,1.133 1.758,2.64 1.758,4.242c0,1.603 -0.624,3.11 -1.758,4.243c-1.133,1.133 -2.639,1.757 -4.242,1.757z"/>
 </g>
</svg>