<svg xmlns="http://www.w3.org/2000/svg" viewBox="2 2 19.707 19.706">
  <path d="M 21.707 20.293 L 16.314 14.9 C 17.403 13.504 18 11.799 18 10 C 18 7.863 17.167 5.854 15.656 4.344 C 14.146 2.832 12.137 2 10 2 C 7.863 2 5.854 2.832 4.344 4.344 C 2.833 5.854 2 7.863 2 10 C 2 12.137 2.833 14.146 4.344 15.656 C 5.854 17.168 7.863 18 10 18 C 11.799 18 13.504 17.404 14.9 16.314 L 20.293 21.706 L 21.707 20.293 Z M 10 16 C 8.397 16 6.891 15.376 5.758 14.243 C 4.624 13.11 4 11.603 4 10 C 4 8.398 4.624 6.891 5.758 5.758 C 6.891 4.624 8.397 4 10 4 C 11.603 4 13.109 4.624 14.242 5.758 C 15.376 6.891 16 8.398 16 10 C 16 11.603 15.376 13.11 14.242 14.243 C 13.109 15.376 11.603 16 10 16 Z" fill="#99aab5"/>
</svg>