<?xml version="1.0" standalone="no"?>
<!DOCTYPE svg PUBLIC "-//W3C//DTD SVG 20010904//EN"
 "http://www.w3.org/TR/2001/REC-SVG-20010904/DTD/svg10.dtd">
<svg version="1.0" xmlns="http://www.w3.org/2000/svg"
 width="1209.000000pt" height="805.000000pt" viewBox="0 0 1209.000000 805.000000"
 preserveAspectRatio="xMidYMid meet">
<metadata>
Created by potrace 1.16, written by Peter Selinger 2001-2019
</metadata>
<g transform="translate(0.000000,805.000000) scale(0.100000,-0.100000)"
fill="#000000" stroke="none">
<path d="M6013 6051 c-13 -3 -114 -69 -225 -147 -112 -78 -565 -392 -1008
-699 -1270 -881 -1163 -804 -1179 -850 -12 -37 -12 -45 4 -78 20 -43 59 -67
108 -67 27 0 66 22 188 107 85 58 601 416 1147 795 622 432 997 686 1005 682
6 -4 505 -350 1107 -768 602 -418 1115 -772 1139 -788 89 -56 177 -22 188 74
5 42 2 49 -28 81 -19 20 -250 185 -514 368 -264 183 -750 520 -1080 749 -759
526 -775 537 -805 543 -14 2 -35 2 -47 -2z"/>
<path d="M4400 4423 c-74 -38 -70 44 -70 -1208 0 -1046 1 -1122 18 -1155 36
-72 12 -70 722 -70 488 0 641 3 660 13 13 7 35 28 47 46 l23 34 0 408 0 409
245 0 245 0 0 -410 c0 -354 2 -415 16 -441 30 -60 23 -59 715 -59 563 0 635 2
665 16 68 32 64 -45 64 1214 l0 1140 -32 35 c-55 58 -137 50 -178 -17 -20 -33
-20 -48 -20 -1095 l0 -1063 -500 0 -500 0 0 400 c0 427 -2 442 -50 485 -21 19
-39 20 -404 23 -422 3 -445 1 -476 -51 -19 -30 -20 -53 -20 -444 l0 -413 -505
0 -505 0 0 1065 c0 783 -3 1071 -12 1089 -24 53 -93 76 -148 49z"/>
</g>
</svg>
